<?xml version="1.0" encoding="iso-8859-1"?>
<!-- Uploaded to: SVG Repo, www.svgrepo.com, Generator: SVG Repo Mixer Tools -->
<svg fill="#fff" height="30px" width="30px" version="1.1" id="Capa_1" xmlns="http://www.w3.org/2000/svg" xmlns:xlink="http://www.w3.org/1999/xlink" 
	 viewBox="0 0 493.102 493.102" xml:space="preserve">
<g>
	<g>
		<path d="M25.894,381.8l-0.1,12.2v3.1l0.1,3.8c0.2,2.5,0.1,5.1,0.6,7.6c1,10.2,4.2,20.1,8.5,29.4c8.6,18.6,23.7,33.9,41.7,43.6
			l6.9,3.3c2.3,1,4.8,1.8,7.2,2.7c2.4,0.9,4.9,1.5,7.4,2.1c2.4,0.6,4.9,1.3,7.9,1.6l4.2,0.6c1.4,0.2,2.9,0.4,3.8,0.4l6.1,0.3
			l1.8,0.1h0.8h1.5h3h6.1c32.5-0.1,65-0.1,97.3,0.5c5.8,0.1,14.8-3.4,17.7-5.8c5.6-4.9-1.7-9-12.7-12.1
			c-18.1-5.2-38.1-8.9-59.2-11.4c-10.5-1.3-21.3-2.3-32.3-3c-5.5-0.4-11-0.7-16.5-0.9l-4.2-0.2h-1h-0.5h-0.1l0,0c0.3,0-0.7,0,0.6,0
			h-0.1h-0.3l-2.1-0.2c-2.7-0.2-5.8-0.4-7.5-0.9c-1.2-0.3-2.4-0.4-3.6-0.7l-3.9-1.2c-2.6-0.7-5.1-1.9-7.6-2.9
			c-4.9-2.4-9.5-5.3-13.6-8.9c-4-3.6-7.8-7.5-10.7-12c-1.7-2.1-2.8-4.6-4.1-6.9c-1-2.5-2.3-4.8-3-7.3c-1.9-4.9-2.6-10.2-3.2-15.4
			l-0.1-3.9c0-1.3-0.1-2.6,0-4.4l0.3-10.1l0.9-40.4c1.1-53.8,1.3-107.8-0.3-161.9c0.4-13.4,0.7-26.7,1.1-40.1l0.6-31.8l0.2-15.9
			v-1.9v-0.1l0.1-1l0.2-4c0.1-3.1,0.6-4,0.8-5.7c1.3-7.1,4.4-14.9,8.8-21.2c4.4-6.4,10.2-12,16.7-16.1c6.6-4.2,14-7,21.7-8.3
			c1.9-0.4,3.9-0.5,5.8-0.7c1.1-0.1,1.7-0.2,3.2-0.2l4-0.1l15.9-0.3c21.2-0.5,42.3-1.2,63.4-2.3c24-1.2,44-5.8,42.2-14.8
			c-1.6-8.3-18.7-14.4-43.3-15.3c-22.1-0.8-44.4-1.6-66.6-2.4l-16.7-0.4c-3.4,0.1-6.7,0.1-10.1,0.4c-3.3,0.5-6.7,0.8-10,1.6
			c-13.2,2.8-25.8,8.7-36.5,17c-17.1,13.4-29.2,33-33.4,54.3c-0.5,2.8-0.9,5.8-1.2,8.7c-0.2,1.6-0.2,2.6-0.3,3.7l-0.1,3.3l-0.1,1.7
			v1.6v0.8l0.1,3.3l0.1,6.7l0.5,26.8l2.2,107.1c-2.9,32-4.6,64.2-5.6,96.5C26.394,349.4,26.094,365.6,25.894,381.8z"/>
		<path d="M461.694,246.4c-13.8-10.3-30.6-14.8-47.7-16c-41.1-2.9-82.2-7.3-123.6-4c-5.1-0.4-10.2-0.8-15.3-1.1
			c-25.5-1.3-51-1.9-76.4-0.1c16-14.7,31.2-30.3,44.1-48c4.5-6.1,5.6-13.8-1.2-19.8c-6.2-5.5-14.3-6-20.4-1.3
			c-11,8.6-22.2,17.1-31.9,27.1c-15.5,16.1-29.9,33.3-44.8,50l-2.4,1.4h-0.1c-4.6,2.7-6.1,8.5-3.5,13.1l3.6,6.1
			c20.3,35.1,53,59,79.4,88.6c1.2,1.3,5.7,0.9,8-0.2c4.7-2.2,6-6.8,5.8-11.4c-0.7-15.3-7.2-28.2-16.2-38.9
			c-9.3-11.1-18.4-22.3-27.9-33.2c12.7,1.2,25.4,2.3,38,2.1c27.3-0.4,54.6-2.4,82-3.7c49,11.5,99.1,4.9,148.6,7.3
			c2.2,0.1,5.7-3.4,6.8-5.8C468.694,253.7,465.894,249.6,461.694,246.4z"/>
	</g>
</g>
</svg>